<svg width="170" height="107" viewBox="0 0 170 107" fill="none" xmlns="http://www.w3.org/2000/svg">
<path d="M156.625 51.2708C156.64 57.1552 155.266 62.9601 152.613 68.2125C149.467 74.5065 144.631 79.8005 138.647 83.5014C132.662 87.2023 125.765 89.1639 118.729 89.1667C112.845 89.182 107.04 87.8072 101.788 85.1542L76.375 93.625L84.8458 68.2125C82.1928 62.9601 80.818 57.1552 80.8333 51.2708C80.8361 44.2345 82.7977 37.3379 86.4986 31.3535C90.1995 25.369 95.4935 20.5332 101.788 17.3875C107.04 14.7345 112.845 13.3597 118.729 13.375H120.958C130.251 13.8877 139.028 17.81 145.609 24.3909C152.19 30.9719 156.112 39.749 156.625 49.0417V51.2708Z" stroke="black" stroke-width="3" stroke-linecap="round" stroke-linejoin="round"/>
<path d="M8.375 52.1042C8.3654 55.7888 9.22627 59.4236 10.8875 62.7125C12.8572 66.6536 15.8853 69.9685 19.6325 72.2859C23.3798 74.6033 27.6982 75.8316 32.1042 75.8333C35.7888 75.8429 39.4236 74.9821 42.7125 73.3208L58.625 78.625L53.3208 62.7125C54.9821 59.4236 55.8429 55.7888 55.8333 52.1042C55.8316 47.6982 54.6033 43.3798 52.2859 39.6325C49.9685 35.8853 46.6536 32.8572 42.7125 30.8875C39.4236 29.2263 35.7888 28.3654 32.1042 28.375H30.7083C24.8895 28.696 19.3936 31.152 15.2728 35.2728C11.152 39.3936 8.69602 44.8895 8.375 50.7083V52.1042Z" stroke="black" stroke-width="3" stroke-linecap="round" stroke-linejoin="round"/>
</svg>
