<svg width="32" height="32" viewBox="0 0 32 32" fill="none" xmlns="http://www.w3.org/2000/svg">
<path d="M7.26663 6.8135L2.66663 16.0002V24.0002C2.66663 24.7074 2.94758 25.3857 3.44767 25.8858C3.94777 26.3859 4.62605 26.6668 5.33329 26.6668H26.6666C27.3739 26.6668 28.0521 26.3859 28.5522 25.8858C29.0523 25.3857 29.3333 24.7074 29.3333 24.0002V16.0002L24.7333 6.8135C24.5125 6.36921 24.1722 5.99532 23.7506 5.73387C23.3289 5.47241 22.8427 5.33376 22.3466 5.3335H9.65329C9.15718 5.33376 8.67098 5.47241 8.24935 5.73387C7.82773 5.99532 7.4874 6.36921 7.26663 6.8135Z" fill="#F02D2D"/>
<path d="M29.3333 16H21.3333L18.6667 20H13.3333L10.6667 16H2.66667" stroke="white" stroke-width="2" stroke-linejoin="round"/>
</svg>
