<svg width="32" height="32" viewBox="0 0 32 32" fill="none" xmlns="http://www.w3.org/2000/svg">
<g clip-path="url(#clip0_14_567)">
<path d="M16 0.833008C16.8397 0.833094 17.6455 1.16793 18.2393 1.76172C18.8329 2.35555 19.166 3.16131 19.166 4.00098V4.11914L19.1709 4.24219C19.1931 4.53005 19.2891 4.80893 19.4492 5.05078C19.6094 5.29247 19.8287 5.4884 20.085 5.62109L20.1963 5.6748L20.2012 5.67676C20.5118 5.81385 20.8573 5.85443 21.1914 5.79395C21.5254 5.73336 21.8344 5.57417 22.0771 5.33691L22.1523 5.26074C22.4463 4.96644 22.7964 4.7326 23.1807 4.57324C23.5648 4.41406 23.9768 4.33214 24.3926 4.33203C24.8086 4.33203 25.2211 4.41397 25.6055 4.57324C25.9896 4.73247 26.3389 4.96569 26.6328 5.25977C26.9272 5.55385 27.161 5.90368 27.3203 6.28809C27.4796 6.67242 27.5615 7.08495 27.5615 7.50098C27.5614 7.91673 27.4795 8.32881 27.3203 8.71289C27.161 9.0971 26.9271 9.44725 26.6328 9.74121L26.5537 9.82129L26.5527 9.82031C26.3176 10.0624 26.1599 10.37 26.0996 10.7021C26.0391 11.0362 26.0797 11.3818 26.2168 11.6924C26.2438 11.7537 26.2578 11.8198 26.2588 11.8867C26.3916 12.1553 26.5921 12.3857 26.8428 12.5518C27.1191 12.7348 27.444 12.8326 27.7754 12.834H28C28.8397 12.8341 29.6455 13.1679 30.2393 13.7617C30.8329 14.3555 31.166 15.1613 31.166 16.001C31.1658 16.8405 30.8329 17.6466 30.2393 18.2402C29.6455 18.8338 28.8395 19.1669 28 19.167H27.8818L27.7578 19.1719C27.4701 19.1941 27.1919 19.2901 26.9502 19.4502C26.6741 19.6332 26.4567 19.8929 26.3262 20.1973L26.2773 20.3193C26.1783 20.5982 26.153 20.8998 26.2061 21.1924C26.2664 21.5248 26.4247 21.8321 26.6602 22.0742L26.7402 22.1533H26.7393C27.0337 22.4474 27.2674 22.7972 27.4268 23.1816C27.5859 23.5658 27.6679 23.9777 27.668 24.3936C27.6679 24.8095 27.586 25.2222 27.4268 25.6064C27.2675 25.9904 27.0343 26.3399 26.7402 26.6338C26.4462 26.928 26.0962 27.162 25.7119 27.3213C25.3278 27.4804 24.9157 27.5625 24.5 27.5625C24.084 27.5625 23.6714 27.4806 23.2871 27.3213C22.9028 27.1619 22.5528 26.9282 22.2588 26.6338V26.6328L22.1797 26.5547V26.5537C21.9375 26.3184 21.6302 26.1608 21.2979 26.1006C20.9639 26.0401 20.6191 26.0808 20.3086 26.2178L20.3037 26.2207C19.9993 26.3513 19.7386 26.5676 19.5557 26.8438C19.3728 27.1201 19.2748 27.445 19.2734 27.7764V28.001C19.2732 28.8405 18.9394 29.6466 18.3457 30.2402C17.7519 30.8337 16.946 31.167 16.1064 31.167C15.2669 31.1669 14.4609 30.8338 13.8672 30.2402C13.2735 29.6466 12.9397 28.8405 12.9395 28.001V27.8926L12.9316 27.7646C12.9024 27.4694 12.7965 27.1859 12.623 26.9434C12.4246 26.666 12.1472 26.4547 11.8271 26.3369C11.8174 26.3333 11.8074 26.3294 11.7979 26.3252C11.4871 26.1881 11.1418 26.1464 10.8076 26.207C10.4737 26.2677 10.1655 26.4277 9.92285 26.665L9.84668 26.7412L9.8457 26.7402C9.55186 27.0342 9.20328 27.2685 8.81934 27.4277C8.43508 27.5869 8.02238 27.6689 7.60645 27.6689C7.19042 27.6689 6.77787 27.587 6.39355 27.4277C6.0093 27.2684 5.6602 27.0345 5.36621 26.7402C5.07208 26.4463 4.83798 26.097 4.67871 25.7129C4.51957 25.3288 4.43761 24.9167 4.4375 24.501C4.4375 24.0851 4.51954 23.6723 4.67871 23.2881C4.83799 22.9038 5.07199 22.5538 5.36621 22.2598L5.44629 22.1807C5.68158 21.9386 5.83907 21.6311 5.89941 21.2988C5.95244 21.0063 5.92802 20.7055 5.8291 20.4268L5.78027 20.3047C5.64968 20 5.43265 19.7397 5.15625 19.5566C4.91451 19.3966 4.63636 19.3015 4.34863 19.2793L4.22461 19.2744H4C3.16041 19.2743 2.35449 18.9403 1.76074 18.3467C1.16702 17.753 0.833165 16.9471 0.833008 16.1074C0.833008 15.2678 1.16714 14.462 1.76074 13.8682C2.35451 13.2745 3.16033 12.9405 4 12.9404H4.1084C4.44908 12.9324 4.78037 12.8222 5.05762 12.624C5.33479 12.4257 5.54631 12.1479 5.66406 11.8281L5.67578 11.7988C5.81287 11.4882 5.85346 11.1427 5.79297 10.8086C5.73266 10.4765 5.57493 10.1698 5.33984 9.92773L5.25977 9.84766C4.96549 9.55371 4.73162 9.20451 4.57227 8.82031C4.41298 8.43607 4.33113 8.02337 4.33105 7.60742C4.33105 7.19147 4.41305 6.7788 4.57227 6.39453C4.73144 6.01058 4.96486 5.66105 5.25879 5.36719C5.55276 5.07289 5.90287 4.83904 6.28711 4.67969C6.67138 4.52042 7.08403 4.43852 7.5 4.43848C7.91583 4.43852 8.32775 4.52053 8.71191 4.67969C9.09634 4.83905 9.44614 5.07276 9.74023 5.36719L9.81641 5.44336L9.91016 5.52832C10.1363 5.71866 10.4089 5.8473 10.7012 5.90039C11.0352 5.96096 11.3808 5.92018 11.6914 5.7832L11.79 5.75098C11.8223 5.7442 11.8556 5.74055 11.8887 5.74023C12.156 5.60751 12.3853 5.4069 12.5508 5.15723C12.7333 4.88159 12.8312 4.55807 12.833 4.22754V4.00098C12.833 3.16133 13.1671 2.35554 13.7607 1.76172C14.3545 1.16794 15.1603 0.833105 16 0.833008ZM16 11C13.2386 11 11 13.2386 11 16C11 18.7614 13.2386 21 16 21C18.7614 21 21 18.7614 21 16C21 13.2386 18.7614 11 16 11Z" fill="#F02D2D"/>
</g>
<defs>
<clipPath id="clip0_14_567">
<rect width="32" height="32" fill="white"/>
</clipPath>
</defs>
</svg>
